<svg width="16" height="16" viewBox="0 0 16 16" fill="none" xmlns="http://www.w3.org/2000/svg">
<g clip-path="url(#clip0_5526_49)">
<path d="M12.953 10.6586C11.573 12.0636 7.00928 8.36234 7.99053 7.58359C9.17678 6.64234 14.833 8.74484 12.953 10.6586Z" fill="url(#paint0_linear_5526_49)"/>
<path d="M12.8327 10.2862C11.8202 8.85119 10.6815 8.15869 9.06273 7.52244C9.02648 7.50869 8.98773 7.48119 8.99023 7.44244C8.99273 7.40369 9.07023 7.40619 9.05398 7.44119M11.6027 10.5924C11.2977 10.4699 9.09523 8.37494 8.20898 7.40869L8.27024 7.45119" stroke="#87CDDE" stroke-width="0.1195" stroke-miterlimit="10" stroke-linecap="round" stroke-linejoin="round"/>
<path d="M11.9131 10.1198C11.6869 9.33859 11.3781 8.99984 11.1094 8.55859" stroke="#87CDDE" stroke-width="0.1195" stroke-miterlimit="10" stroke-linecap="round" stroke-linejoin="round"/>
<path d="M14.8185 4.44863C15.6485 6.92363 7.82346 9.13238 7.49971 7.71113C7.05346 5.76113 13.7922 1.39113 14.8185 4.44863Z" fill="url(#paint1_linear_5526_49)"/>
<path d="M13.8083 3.95361C11.5258 4.82236 9.72203 6.13736 8.01953 7.84611M14.472 4.69236C12.5495 6.24986 10.5345 7.30736 8.12453 7.98611" stroke="#87CDDE" stroke-width="0.1195" stroke-miterlimit="10" stroke-linecap="round" stroke-linejoin="round"/>
<path d="M12.1803 3.88623C11.5141 4.48623 11.2153 4.93373 10.9153 5.43873M14.2191 4.16748C13.6291 4.66123 13.1816 5.11498 12.9366 5.83623M11.4291 6.67998C10.6828 6.83248 10.1341 6.84498 9.47656 6.60373" stroke="#87CDDE" stroke-width="0.1195" stroke-miterlimit="10" stroke-linecap="round" stroke-linejoin="round"/>
<path d="M3.04739 10.6586C4.42739 12.0636 8.99114 8.36234 8.00989 7.58359C6.82364 6.64234 1.16739 8.74484 3.04739 10.6586Z" fill="url(#paint2_linear_5526_49)"/>
<path d="M3.17383 10.0627C4.29508 8.78772 5.40383 8.25147 6.93758 7.52272C6.97258 7.50647 7.01258 7.48147 7.01008 7.44272C7.00758 7.40397 6.93008 7.40646 6.94633 7.44146M4.94258 10.1202C5.40758 9.80896 6.90508 8.37396 7.79133 7.40771L7.73008 7.45021" stroke="#87CDDE" stroke-width="0.1195" stroke-miterlimit="10" stroke-linecap="round" stroke-linejoin="round"/>
<path d="M3.9375 10.2026C4.0725 9.73889 5.2575 8.64514 5.50875 8.23389" stroke="#87CDDE" stroke-width="0.1195" stroke-miterlimit="10" stroke-linecap="round" stroke-linejoin="round"/>
<path d="M1.18287 4.17243C0.351623 6.64743 8.17787 8.85618 8.50162 7.43493C8.94662 5.48368 2.20787 1.11493 1.18287 4.17243Z" fill="url(#paint3_linear_5526_49)"/>
<path d="M2.15742 3.67773C4.44117 4.54648 6.27742 5.86023 7.97992 7.57023M1.63867 4.89898C3.56117 6.45648 5.46492 7.03148 7.87617 7.71023" stroke="#87CDDE" stroke-width="0.1195" stroke-miterlimit="10" stroke-linecap="round" stroke-linejoin="round"/>
<path d="M3.66945 3.69629C4.1982 4.04879 4.4307 4.31004 4.64945 4.89754M2.0957 4.22879C2.6857 4.72254 3.0082 5.25754 3.2532 5.97879M3.86695 5.34879C4.78195 5.77379 5.8907 6.55504 6.52445 6.57629" stroke="#87CDDE" stroke-width="0.1195" stroke-miterlimit="10" stroke-linecap="round" stroke-linejoin="round"/>
<path d="M6.32336 11.1114C6.11836 11.1489 5.92586 11.3164 5.89461 11.5227C5.87961 11.6252 5.90961 11.7277 5.93961 11.8264C6.02086 12.0902 6.10586 12.3514 6.19461 12.6127C6.24336 12.7552 6.31461 12.9164 6.46086 12.9514C6.55836 12.9752 6.66211 12.9302 6.73336 12.8589C6.80461 12.7877 6.84836 12.6952 6.88711 12.6027C7.06711 12.1727 7.27711 11.9864 7.28461 11.5214C7.29336 10.9289 6.76336 11.0327 6.32336 11.1114Z" fill="#FFD600"/>
<path d="M6.95487 11.2848L8.57987 10.7323C8.57987 10.6786 8.06737 9.32109 8.06737 9.32109L9.09612 7.49609C9.31487 7.90859 9.98487 9.83359 10.2011 10.8348C10.2824 11.2111 10.1411 11.7023 9.57862 11.8486C8.95112 12.0111 8.34487 12.0886 7.54737 12.1711C6.75112 12.2536 6.47612 11.4986 6.95487 11.2848Z" fill="#FFD600"/>
<path d="M8.57945 10.7339L7.2832 11.1739L7.4557 12.1764C7.4557 12.1764 8.39945 12.1014 8.93695 11.9876C9.47445 11.8751 8.57945 10.7339 8.57945 10.7339Z" fill="url(#paint4_linear_5526_49)"/>
<path d="M8.18321 9.30603C8.14571 8.74353 8.03196 8.14103 7.91696 7.56228L7.86446 7.52979L6.48196 8.63728L6.29696 11.696L5.89446 13.6798C5.69946 13.7048 5.49821 13.786 5.42196 13.9635C5.38196 14.0585 5.38446 14.166 5.38946 14.2698C5.40196 14.5448 5.41821 14.8198 5.43946 15.0948C5.45071 15.2448 5.47946 15.4185 5.61196 15.4898C5.70071 15.5373 5.81196 15.5198 5.89821 15.4685C5.98446 15.4185 6.05071 15.3385 6.11071 15.2598C6.29446 15.0173 6.56696 14.4698 6.56696 14.4698C6.56696 14.4698 7.34321 13.031 7.62571 12.0498C8.01446 10.691 8.16446 9.30228 8.18321 9.30603Z" fill="#FFD600"/>
<path d="M3.75096 9.39514C3.39346 9.31014 3.11971 9.18389 2.93346 9.12139C2.74596 9.05889 2.73971 8.70264 3.13221 8.81764C3.35596 8.88264 3.26721 8.73264 3.08346 8.63639C2.89971 8.53889 2.43346 8.77139 2.32346 8.66764C2.24721 8.59639 2.25846 8.49389 2.30096 8.45514C2.44471 8.32764 2.78846 8.20639 3.09096 8.22014C3.36096 8.23264 3.78471 8.63139 4.04471 8.56264C4.04596 8.56264 4.54096 7.68264 4.99346 6.87889L5.72596 5.57764L7.08596 6.15514C7.08596 6.15514 4.77346 8.88889 4.65221 9.00139C4.38096 9.25389 4.13096 9.48639 3.75096 9.39514Z" fill="#FFD600"/>
<path d="M13.0427 6.15758C13.0327 6.14633 13.0215 6.13633 13.0102 6.12508C12.9633 6.08341 12.9057 6.05571 12.8438 6.04511C12.7819 6.0345 12.7184 6.04142 12.6602 6.06508C12.504 6.12633 11.9552 6.49758 11.8215 6.57758L11.1915 6.95633L10.459 5.73633L9.30273 6.33383L10.634 7.89008C10.7765 8.10383 11.0802 8.19508 11.3077 8.07508C11.3077 8.07508 11.3177 8.06758 11.334 8.05633C11.3677 8.04133 11.4015 8.02133 11.4315 7.99883C11.8165 7.69383 12.6315 7.01008 12.7515 6.89508C12.9377 6.71133 13.2852 6.42258 13.0427 6.15758Z" fill="#FFD600"/>
<path d="M12.9505 5.99268L13.0805 6.15143L12.9405 6.83143L12.798 6.84643L12.2168 7.35268L12.3418 6.28893C12.3418 6.28893 12.3068 6.28143 12.5518 6.24893C12.7955 6.21768 12.9505 5.99268 12.9505 5.99268Z" fill="url(#paint5_linear_5526_49)"/>
<path d="M13.807 2.66732L13.7957 2.66357L12.652 7.78482C12.6502 7.79254 12.6499 7.80053 12.6512 7.80835C12.6525 7.81617 12.6553 7.82366 12.6595 7.83039C12.6636 7.83713 12.6691 7.84297 12.6755 7.84759C12.682 7.85221 12.6893 7.85552 12.697 7.85732C12.7047 7.85913 12.7127 7.8594 12.7205 7.85811C12.7283 7.85683 12.7358 7.85402 12.7425 7.84984C12.7493 7.84566 12.7551 7.8402 12.7597 7.83376C12.7644 7.82732 12.7677 7.82004 12.7695 7.81232V7.81107L13.807 2.66732Z" fill="#6D4C41" stroke="#6D4C41" stroke-width="0.125" stroke-miterlimit="10"/>
<path d="M13.9245 1.84521L13.612 2.27521L13.082 2.26271L13.3945 2.69146L13.2183 3.19271L13.7233 3.02771L14.1445 3.35146V2.82021L14.582 2.51771L14.0758 2.35396L13.9245 1.84521Z" fill="#FFD600"/>
<path d="M13.0686 6.35102C13.0961 6.34477 13.1161 6.33602 13.1386 6.31852L13.0398 6.80477L12.8086 6.81227L12.9248 6.29102C12.9636 6.32602 13.0086 6.36602 13.0686 6.35102Z" fill="#6D4C41"/>
<path d="M9.54031 6.69771L9.55781 8.66771L8.49906 9.49521C8.39906 9.55021 8.28656 9.57896 8.17281 9.57896C8.06281 9.58021 7.95406 9.55521 7.85531 9.50646L6.47906 8.69646L6.46281 6.72521L5.50781 5.85396C5.50781 5.85396 5.63906 5.34646 6.55781 5.06646C6.89531 4.96396 7.33906 4.89146 7.92156 4.88646C8.56531 4.88146 9.05406 4.96021 9.42156 5.07521C10.2928 5.34521 10.4903 5.81021 10.4903 5.81021L9.54031 6.69771Z" fill="url(#paint6_linear_5526_49)"/>
<path d="M13.0063 6.53235C12.9863 6.61485 13.0375 6.6986 13.1188 6.71735L13.33 6.7686C13.3695 6.77821 13.4111 6.77176 13.4458 6.75066C13.4805 6.72957 13.5054 6.69555 13.515 6.6561C13.5246 6.61665 13.5182 6.57499 13.4971 6.5403C13.476 6.50561 13.442 6.48071 13.4025 6.4711L13.1913 6.41985C13.11 6.3986 13.0263 6.44985 13.0063 6.53235Z" fill="url(#paint7_linear_5526_49)"/>
<path d="M13.0184 6.29875C13.0096 6.38375 13.0721 6.45875 13.1571 6.4675L13.4396 6.49625C13.5246 6.505 13.5996 6.4425 13.6084 6.3575C13.6171 6.2725 13.5546 6.1975 13.4696 6.18875L13.1871 6.16C13.1021 6.15125 13.0271 6.21375 13.0184 6.29875Z" fill="url(#paint8_linear_5526_49)"/>
<path d="M12.9981 6.03121C12.9981 6.03121 13.0668 6.19371 13.1493 6.19371L13.4643 6.19246C13.5481 6.19121 13.6156 6.12371 13.6143 6.03996V6.02746C13.6143 5.94371 13.5456 5.87621 13.4618 5.87746L13.1468 5.87871C13.0643 5.87871 12.9968 5.94746 12.9981 6.03121Z" fill="url(#paint9_linear_5526_49)"/>
<path d="M12.9332 5.8586C12.952 5.93985 13.0332 5.9911 13.1145 5.97235L13.4495 5.89485C13.4885 5.88533 13.5223 5.8609 13.5436 5.82679C13.5648 5.79268 13.5719 5.7516 13.5632 5.71235C13.5445 5.6311 13.4632 5.57985 13.382 5.5986L13.047 5.6761C12.9645 5.6961 12.9157 5.77735 12.9332 5.8586Z" fill="url(#paint10_linear_5526_49)"/>
<path d="M13.4569 6.49622C13.3994 6.45372 13.3369 6.43747 13.2744 6.42622C13.2106 6.41747 13.1469 6.41497 13.0781 6.43622C13.1356 6.47872 13.1981 6.49622 13.2606 6.50622C13.3244 6.51622 13.3881 6.51872 13.4569 6.49622ZM13.4806 6.18997C13.4194 6.15872 13.3581 6.15122 13.2969 6.15122C13.2356 6.15247 13.1744 6.16122 13.1144 6.19497C13.1756 6.22747 13.2369 6.23372 13.2981 6.23372C13.3581 6.23122 13.4194 6.22372 13.4806 6.18997ZM13.0969 5.98622C13.1706 5.99997 13.2381 5.98872 13.3044 5.97247C13.3694 5.95372 13.4331 5.92872 13.4906 5.87997C13.4169 5.86622 13.3494 5.87622 13.2831 5.89372C13.2181 5.91122 13.1544 5.93622 13.0969 5.98622Z" fill="#FFD1AA"/>
<path d="M13.3788 6.01643C13.44 6.11393 13.3175 6.21018 13.2438 6.22393C13.1713 6.23768 13.1188 6.17643 13.0863 6.11018C13.025 5.98893 12.9775 5.93643 12.9338 5.91518C12.8938 5.89518 12.93 6.16893 12.6613 6.22518C12.5063 6.25768 12.3763 6.14768 12.375 6.03643C12.3738 5.88768 12.6325 5.64518 12.9638 5.58643C13.275 5.61143 13.3488 5.97018 13.3788 6.01643Z" fill="url(#paint11_linear_5526_49)"/>
<path d="M12.5508 6.24869C12.7295 6.27869 12.9095 6.13244 12.962 5.95869L12.967 5.94244L12.9695 5.93369C12.972 5.92619 12.9708 5.92994 12.9695 5.93369C12.9658 5.94244 12.9558 5.94869 12.947 5.94869C12.9383 5.94994 12.9245 5.93994 12.9233 5.93369L12.952 5.99244C12.972 6.03119 12.9933 6.06869 13.0158 6.10619C13.0545 6.17619 13.122 6.27619 13.2358 6.28244C13.342 6.28744 13.4508 6.19619 13.432 6.07869C13.4108 5.98994 13.3783 5.90744 13.3283 5.83369C13.2295 5.68744 13.167 5.56119 12.9658 5.58619C13.137 5.60994 13.2108 5.71494 13.2833 5.86119C13.3208 5.93369 13.3495 6.01369 13.3645 6.09119C13.3745 6.14994 13.3033 6.21119 13.242 6.20244C13.2108 6.19994 13.1808 6.18494 13.1545 6.15994C13.1283 6.13619 13.1095 6.10119 13.087 6.06494C13.0658 6.02869 13.0458 5.99244 13.0258 5.95494L12.997 5.89994C12.992 5.88494 12.9683 5.86744 12.9483 5.86869C12.9283 5.86869 12.9083 5.88119 12.8995 5.89869C12.8945 5.90994 12.8958 5.91244 12.8945 5.91369L12.8933 5.92119L12.8895 5.93494C12.8683 6.01119 12.8258 6.07994 12.7695 6.13494C12.7408 6.16119 12.7058 6.18369 12.6695 6.19994C12.6295 6.21744 12.5908 6.22619 12.5508 6.24869Z" fill="#FFD4B1"/>
<path d="M8.5218 4.90746V4.33496H7.4368V4.90746C7.08555 4.93746 6.7968 4.99371 6.56055 5.06496C6.67055 5.48371 7.1893 5.93621 8.00555 5.92996C8.7993 5.92371 9.3043 5.48496 9.4243 5.07371C9.1793 4.99871 8.8818 4.93871 8.5218 4.90746Z" fill="#FFD600"/>
<path d="M6.4968 1.62368C6.14305 1.66118 5.8193 1.84743 5.5643 2.08993C5.3468 2.29743 4.9993 2.89118 4.6318 2.55618C4.5093 2.44493 4.6443 2.24493 4.6443 2.24493C4.6443 2.24493 4.26305 2.30368 4.3893 2.71618C4.3893 2.71618 3.42055 2.27743 3.1543 3.09618C3.1543 3.09618 3.31555 2.87868 3.5843 2.89618C3.7543 2.90743 3.8968 3.02618 4.0143 3.14743C4.1318 3.26743 4.22805 3.40618 4.34555 3.52618C4.6118 3.79618 4.9868 3.97493 5.3718 3.97493C5.9468 3.97493 6.48805 3.51493 6.77805 3.26493C6.94055 3.12493 7.5693 1.98243 7.7718 1.84118C8.0543 1.64243 6.85055 1.58618 6.4968 1.62368Z" fill="url(#paint12_linear_5526_49)"/>
<path d="M6.27903 2.40962C5.96952 2.58497 5.74679 2.88479 5.60953 3.20881C5.49272 3.48579 5.41057 4.16883 4.94002 4.00801C4.78334 3.95478 4.82747 3.71755 4.82747 3.71755C4.82747 3.71755 4.5012 3.92334 4.78136 4.25138C4.78136 4.25138 3.71801 4.23496 3.80004 5.092C3.80004 5.092 3.86127 4.82826 4.11474 4.73722C4.27514 4.67981 4.45316 4.73194 4.60924 4.79634C4.76483 4.85958 4.90839 4.94849 5.06397 5.01174C5.41576 5.15329 5.83093 5.16782 6.18404 5.01442C6.71143 4.78531 7.02457 4.14774 7.19095 3.8029C7.28421 3.60974 7.40566 2.31133 7.53511 2.10109C7.71503 1.80623 6.58855 2.23427 6.27903 2.40962Z" fill="url(#paint13_linear_5526_49)"/>
<path d="M7.47102 1.62934C7.15548 1.46509 6.78273 1.44138 6.43619 1.50254C6.14024 1.55527 5.52249 1.85804 5.40136 1.37574C5.36076 1.21533 5.5838 1.12326 5.5838 1.12326C5.5838 1.12326 5.2336 0.961512 5.11083 1.37506C5.11083 1.37506 4.54597 0.474006 3.87157 1.0092C3.87157 1.0092 4.12617 0.917054 4.34047 1.08017C4.47593 1.1835 4.52906 1.36122 4.55997 1.52721C4.59157 1.69216 4.5951 1.86099 4.62671 2.02593C4.69937 2.3981 4.91311 2.75432 5.23397 2.9671C5.71317 3.28489 6.41847 3.20067 6.79833 3.15259C7.01113 3.12573 8.16656 2.52107 8.41339 2.51527C8.75867 2.50576 7.78655 1.7936 7.47102 1.62934Z" fill="url(#paint14_linear_5526_49)"/>
<path d="M8.5086 1.12036C8.20635 0.932771 7.83645 0.88101 7.48629 0.915859C7.18721 0.946106 6.54837 1.20141 6.46397 0.711355C6.43558 0.548331 6.66494 0.473352 6.66494 0.473352C6.66494 0.473352 6.32794 0.285648 6.17433 0.68876C6.17433 0.68876 5.67904 -0.252342 4.9662 0.23045C4.9662 0.23045 5.22701 0.157774 5.4284 0.336592C5.55568 0.449847 5.59525 0.631071 5.61355 0.798919C5.63262 0.96578 5.62341 1.13439 5.64248 1.30125C5.68686 1.67784 5.87311 2.04917 6.177 2.28555C6.63087 2.63859 7.34052 2.60781 7.72292 2.58853C7.93714 2.57779 9.13489 2.06202 9.38145 2.07486C9.72647 2.09142 8.81085 1.30796 8.5086 1.12036Z" fill="url(#paint15_linear_5526_49)"/>
<path d="M8.50052 3.34923C8.5765 3.69676 8.79706 3.99818 9.06601 4.22511C9.29607 4.4186 9.92428 4.69904 9.63151 5.10099C9.53433 5.23493 9.32076 5.12262 9.32076 5.12262C9.32076 5.12262 9.42088 5.49516 9.81708 5.32452C9.81708 5.32452 9.48698 6.33547 10.3299 6.51052C10.3299 6.51052 10.0961 6.37404 10.0841 6.10499C10.0767 5.93478 10.1791 5.78014 10.2868 5.65008C10.3932 5.52015 10.5206 5.4093 10.627 5.27937C10.8662 4.98517 11.0029 4.59287 10.9608 4.21018C10.8978 3.63863 10.3814 3.15097 10.1011 2.89007C9.94419 2.74387 8.73975 2.24392 8.57719 2.05809C8.34872 1.79904 8.42453 3.00171 8.50052 3.34923Z" fill="url(#paint16_linear_5526_49)"/>
<path d="M8.76704 3.3198C9.04867 3.53712 9.4114 3.62618 9.7633 3.62707C10.0639 3.62735 10.7254 3.43825 10.7596 3.93434C10.7712 4.09941 10.5355 4.15071 10.5355 4.15071C10.5355 4.15071 10.8517 4.37167 11.0454 3.98624C11.0454 3.98624 11.4426 4.97278 12.2007 4.56488C12.2007 4.56488 11.9339 4.61069 11.7517 4.41234C11.6366 4.28675 11.6156 4.10244 11.6145 3.9336C11.6124 3.76567 11.6387 3.59886 11.6367 3.43093C11.6308 3.05178 11.4832 2.66345 11.2049 2.39743C10.7893 2.00013 10.0801 1.95867 9.69777 1.93902C9.48356 1.92794 8.23962 2.3194 7.99564 2.28159C7.65409 2.23007 8.48541 3.10248 8.76704 3.3198Z" fill="url(#paint17_linear_5526_49)"/>
<path d="M8.32949 2.11274C8.63948 2.28723 9.01126 2.32313 9.35961 2.27333C9.65712 2.23032 10.2845 1.94792 10.3897 2.43392C10.4251 2.59558 10.1991 2.6803 10.1991 2.6803C10.1991 2.6803 10.5439 2.85342 10.6801 2.4441C10.6801 2.4441 11.2152 3.36316 11.9067 2.85032C11.9067 2.85032 11.6492 2.93408 11.4404 2.76404C11.3084 2.65634 11.2611 2.47697 11.2356 2.31006C11.2094 2.14417 11.2114 1.97531 11.1853 1.80942C11.1248 1.43507 10.9228 1.07205 10.6091 0.848885C10.1406 0.515589 9.43287 0.576694 9.05165 0.612314C8.83808 0.632203 7.66349 1.19874 7.4166 1.19646C7.0712 1.19466 8.01949 1.93825 8.32949 2.11274Z" fill="url(#paint18_linear_5526_49)"/>
<path d="M9.2324 2.69614L8.89865 2.68864L7.0899 2.65114L6.75615 2.64364C6.48865 2.63864 6.26615 2.86614 6.2599 3.15114C6.25365 3.43489 6.4674 3.67239 6.7349 3.67864L7.06865 3.68614L8.8774 3.72364L9.21115 3.73114C9.47865 3.73614 9.70115 3.50864 9.7074 3.22364C9.71365 2.93864 9.49865 2.70239 9.2324 2.69614Z" fill="#99674F"/>
<path d="M8.04336 1.98157C8.78836 2.00282 9.46211 2.57657 9.42711 3.75157C9.39961 4.69407 8.9916 4.46347 8.47785 4.62847C8.35535 4.66847 8.08202 4.63097 7.97827 4.62847C7.87452 4.62597 7.6208 4.67472 7.50205 4.62847C6.9983 4.43472 6.53211 4.61282 6.55961 3.66782C6.59336 2.49407 7.29836 1.96032 8.04336 1.98157Z" fill="#FFD600"/>
<path d="M7.69833 3.65902C7.701 3.53133 7.60301 3.42572 7.47946 3.42314C7.35592 3.42055 7.2536 3.52197 7.25093 3.64966C7.24826 3.77735 7.34625 3.88295 7.46979 3.88554C7.59334 3.88812 7.69566 3.7867 7.69833 3.65902Z" fill="#49362E"/>
<path d="M8.75497 3.69075C8.75764 3.56307 8.65965 3.45746 8.53611 3.45488C8.41256 3.45229 8.31024 3.55371 8.30757 3.6814C8.3049 3.80909 8.40289 3.91469 8.52644 3.91728C8.64998 3.91986 8.7523 3.81844 8.75497 3.69075Z" fill="#49362E"/>
<path d="M8.17173 3.69945C8.16705 3.69717 8.16194 3.6959 8.15673 3.6957L7.83548 3.68945C7.83048 3.68945 7.82548 3.6907 7.82048 3.6932C7.79173 3.70445 7.77423 3.73445 7.78798 3.76695C7.80048 3.79945 7.86298 3.8907 7.99173 3.8932C8.12048 3.8957 8.18673 3.80695 8.20048 3.7757C8.21548 3.74195 8.20048 3.71195 8.17173 3.69945Z" fill="#99674F"/>
<ellipse cx="7.06836" cy="4.04883" rx="0.410156" ry="0.126953" fill="#FFD600"/>
<ellipse cx="8.98438" cy="4.04883" rx="0.410156" ry="0.126953" fill="#FFD600"/>
<path d="M9.70782 3.55045C9.93907 2.8642 9.88907 2.01045 9.29157 1.50045C8.92407 1.1867 8.44907 1.0692 7.97907 1.0792C7.33657 1.0942 6.70157 1.34045 6.39907 1.9617C6.20907 2.35045 6.19032 2.7467 6.24657 3.1667C6.32157 3.7042 6.61282 4.08045 6.61282 4.08045C6.61282 4.08045 6.57157 3.9117 6.56032 3.5817C6.55407 3.4117 6.60157 2.97795 6.79657 2.93295C7.88032 2.6017 8.38907 2.10545 8.38907 2.10545C8.47657 2.29545 8.63282 2.52295 8.79032 2.65045C8.86907 2.7142 8.95282 2.77295 9.03282 2.83545C9.09532 2.88295 9.29532 2.98545 9.34282 3.1242C9.52032 3.7417 9.28657 4.25795 9.28657 4.25795C9.28657 4.25795 9.59032 4.00545 9.70782 3.55045Z" fill="url(#paint19_radial_5526_49)"/>
<path d="M6.49077 8H9.51983L11.0609 10.9093C11.0609 10.9093 10.6353 11.4142 8.11109 11.5072C5.58687 11.6002 4.96289 10.9093 4.96289 10.9093L6.49077 8Z" fill="#FEDA9C"/>
<path d="M8.03117 4.07448C8.03117 4.07448 8.11981 4.138 8.22963 4.1019C8.33945 4.06581 8.35834 3.96686 8.35834 3.96686" stroke="#49362E" stroke-width="0.05" stroke-linecap="round"/>
</g>
<defs>
<linearGradient id="paint0_linear_5526_49" x1="12.9242" y1="10.8226" x2="9.75521" y2="8.20833" gradientUnits="userSpaceOnUse">
<stop stop-color="#80FFEE"/>
<stop offset="0.156" stop-color="#85FCED"/>
<stop offset="0.34" stop-color="#93F1E8"/>
<stop offset="0.539" stop-color="#ABE1E1"/>
<stop offset="0.748" stop-color="#CCC9D8"/>
<stop offset="0.962" stop-color="#FFE066"/>
<stop offset="1" stop-color="#FFD23F"/>
</linearGradient>
<linearGradient id="paint1_linear_5526_49" x1="14.3275" y1="4.16175" x2="7.78224" y2="7.78743" gradientUnits="userSpaceOnUse">
<stop stop-color="#80FFEE"/>
<stop offset="0.156" stop-color="#85FCED"/>
<stop offset="0.34" stop-color="#93F1E8"/>
<stop offset="0.539" stop-color="#ABE1E1"/>
<stop offset="0.748" stop-color="#CCC9D8"/>
<stop offset="0.962" stop-color="#FFE066"/>
<stop offset="1" stop-color="#FFD23F"/>
</linearGradient>
<linearGradient id="paint2_linear_5526_49" x1="3.08025" y1="10.8209" x2="6.24924" y2="8.20668" gradientUnits="userSpaceOnUse">
<stop stop-color="#80FFEE"/>
<stop offset="0.156" stop-color="#85FCED"/>
<stop offset="0.34" stop-color="#93F1E8"/>
<stop offset="0.539" stop-color="#ABE1E1"/>
<stop offset="0.748" stop-color="#CCC9D8"/>
<stop offset="0.962" stop-color="#FFE066"/>
<stop offset="1" stop-color="#FFD23F"/>
</linearGradient>
<linearGradient id="paint3_linear_5526_49" x1="1.66558" y1="3.88418" x2="8.21057" y2="7.51024" gradientUnits="userSpaceOnUse">
<stop stop-color="#80FFEE"/>
<stop offset="0.156" stop-color="#85FCED"/>
<stop offset="0.34" stop-color="#93F1E8"/>
<stop offset="0.539" stop-color="#ABE1E1"/>
<stop offset="0.748" stop-color="#CCC9D8"/>
<stop offset="0.962" stop-color="#FFE066"/>
<stop offset="1" stop-color="#FFD23F"/>
</linearGradient>
<linearGradient id="paint4_linear_5526_49" x1="7.8097" y1="11.4351" x2="8.81258" y2="11.5311" gradientUnits="userSpaceOnUse">
<stop stop-color="#FFD1CF"/>
<stop offset="0.575" stop-color="#F8C7A0" stop-opacity="0"/>
</linearGradient>
<linearGradient id="paint5_linear_5526_49" x1="12.3795" y1="6.63181" x2="12.8119" y2="6.71794" gradientUnits="userSpaceOnUse">
<stop offset="0.437" stop-color="#FFDCBF"/>
<stop offset="1" stop-color="#FFD1AA"/>
</linearGradient>
<linearGradient id="paint6_linear_5526_49" x1="7.99906" y1="3.65158" x2="7.99906" y2="9.60383" gradientUnits="userSpaceOnUse">
<stop stop-color="white"/>
<stop offset="0.188" stop-color="white"/>
<stop offset="0.376" stop-color="#FFF1DA"/>
<stop offset="0.555" stop-color="#FFE0AA"/>
<stop offset="0.723" stop-color="#FDC86D"/>
<stop offset="0.876" stop-color="#D62490"/>
<stop offset="1" stop-color="#DB1F8E"/>
</linearGradient>
<linearGradient id="paint7_linear_5526_49" x1="13.0474" y1="6.59472" x2="13.588" y2="6.59472" gradientUnits="userSpaceOnUse">
<stop stop-color="#FFC3BE"/>
<stop offset="0.575" stop-color="#FFDCBF"/>
</linearGradient>
<linearGradient id="paint8_linear_5526_49" x1="13.0483" y1="6.328" x2="13.5889" y2="6.328" gradientUnits="userSpaceOnUse">
<stop stop-color="#FFBEBE"/>
<stop offset="0.575" stop-color="#FFDCBF"/>
</linearGradient>
<linearGradient id="paint9_linear_5526_49" x1="13.0479" y1="6.03471" x2="13.5886" y2="6.03471" gradientUnits="userSpaceOnUse">
<stop stop-color="#FFBFBE"/>
<stop offset="0.575" stop-color="#FFDCBF"/>
</linearGradient>
<linearGradient id="paint10_linear_5526_49" x1="13.0481" y1="5.7861" x2="13.5887" y2="5.7861" gradientUnits="userSpaceOnUse">
<stop stop-color="#FFBEBE"/>
<stop offset="0.575" stop-color="#FFDCBF"/>
</linearGradient>
<linearGradient id="paint11_linear_5526_49" x1="13.2765" y1="5.78055" x2="12.5439" y2="6.19905" gradientUnits="userSpaceOnUse">
<stop stop-color="#FFD1AA"/>
<stop offset="0.575" stop-color="#FFDCBF"/>
</linearGradient>
<linearGradient id="paint12_linear_5526_49" x1="3.1523" y1="2.79318" x2="7.8113" y2="2.79318" gradientUnits="userSpaceOnUse">
<stop offset="0.345" stop-color="#FFB773"/>
<stop offset="1" stop-color="#BF6C31"/>
</linearGradient>
<linearGradient id="paint13_linear_5526_49" x1="3.67747" y1="4.81488" x2="7.95067" y2="2.95852" gradientUnits="userSpaceOnUse">
<stop offset="0.345" stop-color="#FFB773"/>
<stop offset="1" stop-color="#BF6C31"/>
</linearGradient>
<linearGradient id="paint14_linear_5526_49" x1="4.03737" y1="0.755574" x2="7.92016" y2="3.33049" gradientUnits="userSpaceOnUse">
<stop offset="0.345" stop-color="#FFB773"/>
<stop offset="1" stop-color="#BF6C31"/>
</linearGradient>
<linearGradient id="paint15_linear_5526_49" x1="5.15065" y1="-0.00994415" x2="8.82813" y2="2.85055" gradientUnits="userSpaceOnUse">
<stop offset="0.345" stop-color="#FFB773"/>
<stop offset="1" stop-color="#BF6C31"/>
</linearGradient>
<linearGradient id="paint16_linear_5526_49" x1="10.029" y1="6.54567" x2="9.51915" y2="1.91465" gradientUnits="userSpaceOnUse">
<stop offset="0.345" stop-color="#FFB773"/>
<stop offset="1" stop-color="#BF6C31"/>
</linearGradient>
<linearGradient id="paint17_linear_5526_49" x1="11.9928" y1="4.7853" x2="8.62488" y2="1.56611" gradientUnits="userSpaceOnUse">
<stop offset="0.345" stop-color="#FFB773"/>
<stop offset="1" stop-color="#BF6C31"/>
</linearGradient>
<linearGradient id="paint18_linear_5526_49" x1="11.7327" y1="3.09838" x2="7.93624" y2="0.397809" gradientUnits="userSpaceOnUse">
<stop offset="0.345" stop-color="#FFB773"/>
<stop offset="1" stop-color="#BF6C31"/>
</linearGradient>
<radialGradient id="paint19_radial_5526_49" cx="0" cy="0" r="1" gradientUnits="userSpaceOnUse" gradientTransform="translate(7.89173 1.3511) rotate(180) scale(1.72217 1.78236)">
<stop offset="0.005" stop-color="#FFB773"/>
<stop offset="1" stop-color="#C9783B"/>
</radialGradient>
<clipPath id="clip0_5526_49">
<rect width="16" height="16" fill="white"/>
</clipPath>
</defs>
</svg>
