<?xml version="1.0" encoding="UTF-8"?>
<svg width="400" height="200" viewBox="0 0 400 200" fill="none" xmlns="http://www.w3.org/2000/svg">
  <rect width="400" height="200" fill="#A47551"/>
  <ellipse cx="60" cy="100" rx="20" ry="60" fill="#8C5C2E" fill-opacity="0.2"/>
  <ellipse cx="120" cy="120" rx="16" ry="40" fill="#8C5C2E" fill-opacity="0.18"/>
  <ellipse cx="200" cy="80" rx="24" ry="70" fill="#8C5C2E" fill-opacity="0.13"/>
  <ellipse cx="300" cy="130" rx="18" ry="50" fill="#8C5C2E" fill-opacity="0.16"/>
  <ellipse cx="370" cy="90" rx="14" ry="30" fill="#8C5C2E" fill-opacity="0.15"/>
  <path d="M10,60 Q60,80 110,60 T210,60 T310,60 T390,60" stroke="#7A4F1D" stroke-width="3" fill="none" opacity="0.18"/>
  <path d="M30,120 Q80,140 130,120 T230,120 T330,120 T390,120" stroke="#7A4F1D" stroke-width="2.5" fill="none" opacity="0.13"/>
  <path d="M50,160 Q100,180 150,160 T250,160 T350,160 T390,160" stroke="#7A4F1D" stroke-width="2" fill="none" opacity="0.11"/>
</svg>
